<?xml version="1.0" standalone="no"?><!DOCTYPE svg PUBLIC "-//W3C//DTD SVG 1.1//EN" "http://www.w3.org/Graphics/SVG/1.1/DTD/svg11.dtd"><svg t="1600500582738" class="icon" viewBox="0 0 1024 1024" version="1.1" xmlns="http://www.w3.org/2000/svg" p-id="4894" xmlns:xlink="http://www.w3.org/1999/xlink" width="200" height="200"><defs><style type="text/css"></style></defs><path d="M748.526129 677.142857q0 87.428571-56.857143 150.571429T543.9547 905.714286v100q0 8-5.142857 13.142857t-13.142857 5.142857H448.526129q-7.428571 0-12.857143-5.428571T430.240414 1005.714286v-100q-37.714286-5.142857-72.857143-17.714286T299.383271 862.571429t-42.285714-27.428572-26.571428-21.428571-10-10.285715q-9.714286-12-1.142858-23.428571l58.857143-77.142857q4-5.714286 13.142857-6.857143 8.571429-1.142857 13.714286 5.142857l1.142857 1.142857q64.571429 56.571429 138.857143 71.428572 21.142857 4.571429 42.285714 4.571428 46.285714 0 81.428572-24.571428t35.142857-69.714286q0-16-8.571429-30.285714t-19.142857-24-33.428571-21.428572-37.714286-18.285714-45.714286-18.571429q-22.285714-9.142857-35.142857-14.285714T389.097557 542t-35.714286-17.714286T321.097557 504t-30.571428-24.285714-24.857143-28-20.285715-33.142857-12-38-4.857142-44.571429q0-78.857143 56-138.285714t145.714285-76.571429V18.285714q0-7.428571 5.428572-12.857143T448.526129 0h77.142857q8 0 13.142857 5.142857t5.142857 13.142857v100.571429q32.571429 3.428571 63.142857 13.142857t49.714286 19.142857T693.097557 172.571429t22.285714 16.571428 8.571429 8q9.714286 10.285714 2.857143 21.714286l-46.285714 83.428571q-4.571429 8.571429-13.142858 9.142857-8 1.714286-15.428571-4-1.714286-1.714286-8.285714-6.857142t-22.285715-15.142858-33.428571-18.285714-42.571429-14.857143T496.526129 245.714286q-54.285714 0-88.571429 24.571428t-34.285714 63.428572q0 14.857143 4.857143 27.428571t16.857142 23.714286 22.571429 18.857143 32 17.714285 34.571429 15.428572 40 15.714286q30.285714 11.428571 46.285714 18t43.428571 20 43.142857 24.285714 35.428572 28.571428 30.285714 36.285715T741.097557 623.428571t7.428572 53.714286z" p-id="4895"></path></svg>